<svg width="172" height="43" viewBox="0 0 172 43" fill="none" xmlns="http://www.w3.org/2000/svg">
<path d="M155.765 19.1084L154.394 23.5163H157.272L155.883 19.1084H155.765Z" fill="url(#paint0_linear_1_291)"/>
<path d="M146.521 14.1846V30.6409H171.038V14.1846H146.521ZM158.607 27.8113L157.896 25.6322H153.767L153.072 27.8113H150.177L153.869 16.7037H157.882L161.591 27.8113H158.607ZM165.873 27.8113H162.926V16.7026H165.873V27.8113Z" fill="url(#paint1_linear_1_291)"/>
<path fill-rule="evenodd" clip-rule="evenodd" d="M32.2804 12.6089V24.0541L25.1601 19.9436V13.6338L20.6479 11.027V22.5433L25.1601 25.1502L30.4828 28.2239L32.2804 27.1859L34.9939 25.6182L36.7926 24.5814V10.0068L32.2804 7.3999L25.1601 3.28819L20.6479 0.681336L19.4641 0L14.9531 2.60685L20.6491 5.89504L25.1613 8.50189L32.2804 12.6089ZM20.1064 37.7899L10.198 32.069L17.323 27.9644L22.7855 31.1175L27.2965 28.5106L21.8257 25.3575L17.323 22.7507L12.8107 25.3575L7.48802 28.4265V35.7115L15.5989 40.3943L20.1111 43.0012L24.6221 40.3943L31.7424 36.2838L36.2534 33.677L37.4384 32.9932V27.7795L31.7424 31.0689L27.2314 33.6758L20.1064 37.7899ZM4.53399 13.8293L14.4436 8.10849V16.3307L8.98222 19.4838V24.6975L14.4436 21.5444L18.9546 18.9376V7.58356L17.1571 6.54082L14.4436 4.97671L12.646 3.93871L4.53399 8.61919L0.0229492 11.2237V31.2336L4.53399 33.8405V13.8293Z" fill="url(#paint2_linear_1_291)"/>
<path d="M51.6263 30.2497C47.2693 30.2497 44.9179 28.0827 44.9179 24.8553H48.4681C48.4681 26.6304 49.6668 27.5064 51.6955 27.5064C53.6089 27.5064 54.8537 26.7918 54.8537 25.2472C54.8307 24.5787 54.6232 24.1407 53.9547 23.818C53.5858 23.6335 53.4244 23.5644 52.802 23.403C52.1796 23.2186 51.903 23.1494 51.05 22.965C50.5428 22.8497 50.1279 22.7345 49.7821 22.6653C49.1136 22.4809 48.0531 22.1351 47.4768 21.8354C46.1628 21.0747 45.1715 20.0373 45.1715 18.1239C45.1715 16.6255 45.7478 15.4037 46.9005 14.5046C48.0531 13.6055 49.5746 13.1445 51.465 13.1445C53.4244 13.1445 55.0151 13.6286 56.1908 14.5968C57.3895 15.565 57.9889 16.856 57.9889 18.4697H54.6232C54.6232 16.9252 53.4936 15.9339 51.5341 15.9339C49.7821 15.9339 48.5833 16.6716 48.5833 18.0317C48.5833 18.7463 48.9522 19.0921 49.5055 19.4379C49.6668 19.5301 49.9435 19.6223 50.2893 19.7376C51.0269 19.9451 51.4188 20.0373 52.5484 20.2909C53.0325 20.4061 53.4475 20.4983 53.7472 20.5906C54.3927 20.7519 55.43 21.0747 55.9833 21.3744C56.5596 21.674 57.2743 22.1812 57.6431 22.7575C58.012 23.3338 58.2655 24.1638 58.2655 25.1089C58.2655 27.783 56.3061 30.2497 51.6263 30.2497ZM63.6525 16.6024H58.627V13.5133H72.136V16.6024H67.1105V29.8809H63.6525V16.6024ZM84.2983 29.8809H80.7251L79.6417 26.7226H73.4174L72.357 29.8809H68.7377L74.8006 13.5133H78.2354L84.2983 29.8809ZM78.7426 24.0024L76.5295 17.4554L74.3395 24.0024H78.7426ZM99.3823 29.8809H95.4633L91.4752 22.7575L88.6397 26.2846V29.8809H85.1587V13.5133H88.6397V21.7663L94.7026 13.5133H98.9212L93.7574 19.922L99.3823 29.8809ZM103.681 29.8809H100.2V13.5133H103.681V29.8809ZM119.514 29.8809H116.356L109.486 19.3918V29.8809H106.005V13.5133H109.187L116.056 24.0254V13.5133H119.514V29.8809ZM133.845 23.8641H129.926V21.1669H136.934V29.8809H134.237L134.168 27.9675C133.084 29.3737 131.355 30.2497 129.073 30.2497C124.67 30.2497 121.35 27.0915 121.35 21.8124C121.281 16.6485 124.601 13.0753 129.303 13.1445C131.217 13.1445 132.831 13.6516 134.168 14.6429C135.505 15.6342 136.335 16.9943 136.68 18.6772H133.176C132.646 17.0865 131.102 16.1414 129.35 16.1414C127.067 16.1414 124.831 17.8934 124.831 21.7432C124.831 25.1781 126.698 27.2989 129.488 27.2989C131.632 27.2989 133.269 26.0541 133.845 23.8641Z" fill="white"/>
<defs>
<linearGradient id="paint0_linear_1_291" x1="154.394" y1="21.3124" x2="157.272" y2="21.3124" gradientUnits="userSpaceOnUse">
<stop stop-color="#FD7913"/>
<stop offset="1" stop-color="#F3B25A"/>
</linearGradient>
<linearGradient id="paint1_linear_1_291" x1="144.021" y1="14.3943" x2="171.798" y2="29.4856" gradientUnits="userSpaceOnUse">
<stop stop-color="#FD7913"/>
<stop offset="1" stop-color="#F3B25A"/>
</linearGradient>
<linearGradient id="paint2_linear_1_291" x1="8.76419" y1="6.9283" x2="30.9852" y2="38.4747" gradientUnits="userSpaceOnUse">
<stop stop-color="#FD7913"/>
<stop offset="1" stop-color="#F3B25A"/>
</linearGradient>
</defs>
</svg>
