<svg width="52" height="52" viewBox="0 0 52 52" fill="none" xmlns="http://www.w3.org/2000/svg">
<rect x="1" y="1.00781" width="42" height="42" rx="21" fill="#FFCBCB"/>
<rect x="1" y="1.00781" width="42" height="42" rx="21" stroke="#2A2A2A" stroke-width="2"/>
<g clip-path="url(#clip0_1_179)">
<path d="M29.9999 15.07L29.9999 25.74C30.0143 25.8885 29.9975 26.0384 29.9505 26.1801C29.9035 26.3217 29.8274 26.452 29.7271 26.5625C29.6269 26.673 29.5046 26.7613 29.3681 26.8217C29.2317 26.8821 29.0841 26.9133 28.9349 26.9133C28.7857 26.9133 28.6381 26.8821 28.5016 26.8217C28.3652 26.7613 28.2429 26.673 28.1426 26.5625C28.0423 26.452 27.9662 26.3217 27.9193 26.1801C27.8723 26.0384 27.8555 25.8885 27.8699 25.74L27.8699 17.64L15.7999 29.7C15.5939 29.8576 15.3377 29.9351 15.0789 29.9179C14.8201 29.9008 14.5764 29.7903 14.393 29.6069C14.2096 29.4235 14.0991 29.1797 14.0819 28.9209C14.0648 28.6622 14.1423 28.406 14.2999 28.2L26.3599 16.14L18.2599 16.14C18.1113 16.1544 17.9614 16.1376 17.8198 16.0906C17.6782 16.0437 17.5479 15.9676 17.4374 15.8673C17.3269 15.767 17.2386 15.6447 17.1782 15.5082C17.1178 15.3718 17.0866 15.2242 17.0866 15.075C17.0866 14.9258 17.1178 14.7782 17.1782 14.6418C17.2386 14.5053 17.3269 14.383 17.4374 14.2827C17.5479 14.1824 17.6782 14.1063 17.8198 14.0594C17.9614 14.0124 18.1113 13.9956 18.2599 14.01L28.9299 14.01C29.0703 14.0114 29.2092 14.0385 29.3399 14.09C29.5379 14.1707 29.7069 14.3093 29.8247 14.4878C29.9425 14.6663 30.0036 14.8762 29.9999 15.09L29.9999 15.07Z" fill="#FF5151"/>
</g>
<rect x="24.7998" y="24.8078" width="26.4" height="26.4" rx="13.2" fill="#232323"/>
<g clip-path="url(#clip1_1_179)">
<path d="M37.0819 34.5185C37.0822 34.2596 37.1852 34.0114 37.3683 33.8283C37.5513 33.6453 37.7995 33.5423 38.0584 33.542H38.3963L38.2944 33.2586C38.2769 33.2102 38.2501 33.1658 38.2155 33.1278C38.1808 33.0899 38.139 33.0591 38.0924 33.0374C38.0459 33.0156 37.9955 33.0032 37.9441 33.001C37.8928 32.9987 37.8415 33.0066 37.7932 33.0242L34.3782 34.2668C34.3299 34.2843 34.2855 34.3113 34.2477 34.346C34.2098 34.3807 34.1792 34.4226 34.1575 34.4692C34.1358 34.5158 34.1236 34.5662 34.1214 34.6175C34.1193 34.6688 34.1273 34.7201 34.145 34.7683L34.3254 35.2607H37.0819V34.5185Z" fill="#FAFAFA"/>
<path d="M38.0586 34.1279C37.955 34.1279 37.8556 34.1691 37.7824 34.2423C37.7091 34.3156 37.668 34.415 37.668 34.5186V35.2607H41.0859V34.5186C41.0859 34.415 41.0448 34.3156 40.9715 34.2423C40.8983 34.1691 40.7989 34.1279 40.6953 34.1279H38.0586Z" fill="#FAFAFA"/>
<path d="M42.1211 40.8955H40.7539C40.3654 40.8955 39.9928 40.7412 39.7181 40.4665C39.4434 40.1918 39.2891 39.8192 39.2891 39.4307C39.2891 39.0422 39.4434 38.6696 39.7181 38.3949C39.9928 38.1202 40.3654 37.9658 40.7539 37.9658H42.1211V36.6279C42.1211 36.4207 42.0388 36.222 41.8923 36.0755C41.7458 35.929 41.547 35.8467 41.3398 35.8467H33.7812C33.574 35.8467 33.3753 35.929 33.2288 36.0755C33.0823 36.222 33 36.4207 33 36.6279V42.2189C33 42.4261 33.0823 42.6249 33.2288 42.7714C33.3753 42.9179 33.574 43.0002 33.7812 43.0002H41.3398C41.547 43.0002 41.7458 42.9179 41.8923 42.7714C42.0388 42.6249 42.1211 42.4261 42.1211 42.2189V40.8955Z" fill="#FAFAFA"/>
<path d="M42.707 38.5518H40.7539C40.5208 38.5518 40.2973 38.6444 40.1324 38.8092C39.9676 38.974 39.875 39.1976 39.875 39.4307C39.875 39.6638 39.9676 39.8873 40.1324 40.0521C40.2973 40.217 40.5208 40.3096 40.7539 40.3096H42.707C42.7847 40.3096 42.8592 40.2787 42.9142 40.2238C42.9691 40.1688 43 40.0943 43 40.0166V38.8447C43 38.767 42.9691 38.6925 42.9142 38.6376C42.8592 38.5826 42.7847 38.5518 42.707 38.5518ZM40.7539 39.7236C40.696 39.7236 40.6393 39.7065 40.5911 39.6743C40.543 39.6421 40.5054 39.5963 40.4832 39.5428C40.4611 39.4892 40.4553 39.4303 40.4666 39.3735C40.4779 39.3167 40.5058 39.2645 40.5467 39.2235C40.5877 39.1825 40.6399 39.1546 40.6968 39.1433C40.7536 39.132 40.8125 39.1378 40.866 39.16C40.9196 39.1822 40.9653 39.2197 40.9975 39.2679C41.0297 39.3161 41.0469 39.3727 41.0469 39.4307C41.0469 39.5084 41.016 39.5829 40.9611 39.6378C40.9061 39.6928 40.8316 39.7236 40.7539 39.7236Z" fill="#FAFAFA"/>
</g>
<defs>
<clipPath id="clip0_1_179">
<rect width="16" height="16" fill="white" transform="translate(30 30) rotate(-180)"/>
</clipPath>
<clipPath id="clip1_1_179">
<rect width="10" height="10" fill="white" transform="translate(33 33.0002)"/>
</clipPath>
</defs>
</svg>
